<?xml version="1.0" standalone="no"?>
<!DOCTYPE svg PUBLIC "-//W3C//DTD SVG 20010904//EN"
 "http://www.w3.org/TR/2001/REC-SVG-20010904/DTD/svg10.dtd">
<svg version="1.0" xmlns="http://www.w3.org/2000/svg"
 width="130.000000pt" height="161.000000pt" viewBox="0 0 130.000000 161.000000"
 preserveAspectRatio="xMidYMid meet">

<g transform="translate(0.000000,161.000000) scale(0.100000,-0.100000)"
fill="#000000" stroke="none">
<path d="M240 1515 c-2 -29 -4 -33 -7 -15 -5 28 -23 52 -23 31 0 -7 -5 -9 -11
-5 -6 3 -3 -6 7 -22 10 -16 12 -23 4 -16 -26 23 -31 12 -8 -18 15 -21 19 -33
11 -41 -7 -7 -17 0 -31 23 -14 21 -22 27 -22 16 0 -9 5 -18 12 -20 6 -2 12
-15 14 -29 1 -13 3 -26 3 -29 1 -3 6 2 11 10 6 9 10 10 10 3 0 -6 -5 -15 -10
-18 -6 -4 -1 -14 12 -25 25 -21 10 -27 -23 -9 -20 10 -20 9 -5 -20 27 -51 15
-56 -35 -13 -18 15 -29 21 -24 13 6 -11 4 -13 -9 -8 -10 4 -15 3 -11 -3 3 -6
14 -10 23 -10 30 -1 97 -54 98 -78 2 -29 -2 -28 -33 8 -27 33 -46 40 -36 13 5
-12 2 -15 -10 -10 -9 3 -19 2 -22 -4 -4 -5 6 -9 22 -7 16 1 41 -7 56 -18 28
-20 34 -34 15 -34 -9 0 -9 -3 0 -12 7 -7 12 -23 12 -36 0 -21 -2 -22 -15 -12
-9 7 -15 8 -15 2 0 -5 7 -12 15 -16 22 -8 22 -266 0 -266 -7 0 -19 -8 -24 -17
-9 -16 -10 -16 -11 -1 0 25 -90 22 -90 -3 0 -10 5 -21 12 -25 7 -4 261 -8 565
-9 l553 -2 0 34 c0 31 -2 33 -20 23 -17 -9 -22 -7 -29 13 -13 33 -37 50 -61
42 -16 -5 -20 -2 -20 18 0 16 7 26 19 30 35 9 40 107 5 107 -8 0 -19 12 -24
26 -6 14 -16 24 -23 21 -12 -4 -12 -11 -1 -59 6 -25 4 -28 -22 -29 -24 -1 -25
-2 -6 -6 27 -5 29 -20 2 -28 -15 -5 -18 -12 -13 -36 7 -35 -13 -40 -27 -6 -8
20 -9 21 -10 2 -2 -17 -3 -16 -10 5 -10 31 -12 132 -3 183 5 31 9 38 24 34 11
-3 17 -1 13 4 -3 5 -11 9 -18 9 -19 0 -8 52 18 84 13 17 32 28 49 29 15 1 27
6 27 10 0 5 5 5 11 1 6 -3 15 0 20 7 13 22 22 3 9 -21 -14 -27 0 -46 26 -36
16 6 16 8 -2 22 -10 9 -13 12 -5 8 10 -5 11 -1 7 14 -5 16 -2 21 16 25 19 4
18 5 -6 6 -28 1 -29 1 -11 21 22 25 13 26 -15 3 -11 -10 -22 -16 -24 -13 -1 3
-10 -3 -20 -13 -10 -9 -22 -15 -27 -11 -5 3 -16 -2 -25 -10 -22 -22 -33 -20
-40 9 -8 32 1 55 21 55 10 0 13 -5 9 -12 -5 -7 -2 -9 8 -5 9 3 21 0 27 -6 8
-8 11 -8 11 0 0 6 -7 16 -15 23 -13 11 -13 15 -2 29 7 9 19 29 26 45 10 25 10
28 -2 17 -12 -9 -16 -9 -21 1 -3 7 -3 0 -1 -17 5 -31 -17 -65 -42 -65 -22 0
-27 29 -8 50 10 11 13 20 7 20 -6 0 -13 -6 -16 -12 -3 -7 -4 -1 -2 14 1 15 -1
25 -5 22 -5 -3 -9 -12 -9 -20 0 -8 -5 -12 -11 -9 -6 4 -8 12 -6 19 3 7 -5 21
-17 33 -20 19 -22 20 -22 3 0 -10 3 -17 7 -14 4 2 11 -6 15 -18 13 -37 13 -48
1 -48 -5 0 -7 -3 -4 -6 4 -4 13 -1 22 6 13 11 15 9 15 -13 0 -29 -18 -28 -54
2 -11 9 -16 11 -13 5 7 -12 -21 -29 -31 -19 -3 3 -2 5 2 5 4 0 -2 10 -13 22
-16 16 -18 25 -9 35 13 16 24 7 30 -21 3 -17 5 -16 16 8 7 16 8 25 2 21 -6 -4
-17 -2 -24 4 -18 15 -46 3 -46 -20 0 -10 -7 -19 -15 -19 -18 0 -19 12 -3 28 9
9 8 12 -6 12 -9 0 -15 -4 -12 -8 2 -4 1 -14 -5 -22 -7 -13 -9 -13 -9 0 -1 26
-20 -11 -20 -39 0 -16 -4 -21 -14 -18 -8 3 -17 1 -20 -6 -4 -7 -4 -2 -2 11 2
12 0 22 -5 22 -5 0 -9 -6 -9 -13 0 -15 -37 -53 -45 -46 -2 3 -6 19 -10 36 -3
18 -10 44 -15 58 -13 33 -13 48 0 40 6 -3 10 -16 11 -28 0 -21 1 -21 9 -2 12
28 12 37 0 30 -6 -3 -10 4 -10 16 0 22 -1 22 -14 4 -12 -17 -16 -17 -31 -5
-14 12 -18 12 -26 -1 -6 -10 -9 -6 -10 16 -1 24 -2 26 -7 10 -4 -11 -13 -21
-20 -23 -10 -2 -10 2 -1 19 8 15 8 19 0 15 -6 -4 -11 0 -12 11 -1 10 -7 0 -14
-22 -7 -22 -11 -55 -8 -72 4 -25 2 -33 -10 -33 -17 0 -27 20 -28 58 l0 27 -11
-25 c-9 -21 -12 -22 -15 -7 -3 9 -9 15 -14 12 -5 -4 -2 -19 6 -35 19 -36 19
-40 0 -40 -8 0 -15 6 -15 14 0 8 -8 13 -17 12 -10 0 -20 9 -24 24 -4 14 -7 19
-8 11 -1 -11 -5 -10 -16 5 -15 20 -17 16 -17 -35 -1 -23 -1 -24 -14 -6 -10 13
-14 14 -14 5 0 -11 -3 -11 -12 -2 -9 9 -7 16 7 33 14 15 16 20 5 17 -8 -2 -20
-10 -27 -18 -11 -13 -12 -12 -13 5 0 26 -17 7 -22 -24 -1 -14 -9 -26 -15 -29
-18 -5 -16 42 3 80 9 16 11 27 6 24 -6 -3 -13 4 -15 16 -3 15 -5 9 -7 -17z
m390 -44 c0 -4 -6 -8 -14 -8 -8 0 -12 6 -9 14 5 13 23 9 23 -6z m-50 -21 c-16
-30 -27 -32 -32 -5 -3 13 -2 22 3 20 4 -3 10 -1 14 5 12 19 26 0 15 -20z m30
-9 c0 -6 -4 -12 -10 -16 -5 -3 -7 -12 -3 -20 3 -8 0 -15 -7 -15 -6 0 -9 -4 -5
-9 6 -10 -21 -41 -36 -41 -15 0 -10 20 6 27 9 3 15 13 13 22 -3 20 19 61 32
61 6 0 10 -4 10 -9z m-199 -38 c2 1 2 -2 -2 -6 -10 -14 -38 4 -32 20 6 14 7
14 18 0 7 -9 14 -16 16 -14z m-94 -13 c-4 -27 -17 -38 -17 -15 0 26 -17 6 -22
-24 -4 -31 -24 -38 -31 -11 -3 13 -1 18 6 13 6 -4 8 2 4 16 -3 13 -3 21 0 18
3 -3 14 3 26 13 23 22 38 18 34 -10z m335 11 c6 10 7 7 3 -10 -4 -13 -3 -26 1
-30 15 -10 35 -51 26 -51 -10 0 -10 -39 -1 -55 4 -5 16 -41 28 -79 12 -37 29
-79 37 -92 9 -13 18 -56 21 -102 l6 -79 -27 -7 c-34 -8 -51 1 -36 19 14 17 -9
197 -24 192 -6 -2 -11 -17 -11 -33 0 -33 -18 -45 -23 -14 -2 11 -10 20 -19 20
-11 0 -14 -7 -10 -25 3 -18 -2 -30 -17 -41 -11 -9 -14 -14 -6 -12 8 3 20 -1
27 -8 17 -17 16 -24 -3 -24 -8 0 -12 5 -9 10 4 7 -3 8 -21 4 -19 -5 -25 -4
-20 5 4 6 2 11 -3 11 -6 0 -11 -9 -11 -21 0 -11 4 -18 8 -15 12 7 12 -36 0
-51 -7 -8 -7 -13 0 -13 15 0 25 -51 13 -63 -8 -8 -11 -4 -11 14 0 17 -3 20 -9
10 -6 -9 -8 -2 -7 20 2 19 -1 39 -5 44 -13 17 -19 228 -7 242 7 9 7 13 0 13
-5 0 -8 9 -5 20 3 11 9 18 13 15 10 -6 64 44 56 52 -3 4 -17 -4 -31 -17 -14
-13 -28 -21 -31 -17 -11 10 36 100 64 124 22 18 24 24 13 32 -8 5 -10 14 -6
21 6 9 10 8 18 -5 8 -14 11 -15 19 -4z m-155 -33 c-4 -15 -3 -17 8 -8 10 8 15
8 21 -1 4 -8 3 -9 -4 -5 -8 5 -12 0 -12 -13 0 -28 -16 -27 -24 2 -9 35 -7 59
5 51 6 -3 8 -15 6 -26z m364 -7 c14 -33 14 -39 3 -34 -8 3 -13 8 -10 10 3 3
-2 12 -10 20 -8 8 -11 20 -8 26 5 8 3 8 -6 0 -18 -17 -23 -54 -7 -50 17 3 15
-35 -2 -41 -8 -3 -11 0 -8 6 4 5 -2 21 -13 34 l-19 25 27 22 c14 11 29 21 32
21 3 0 12 -18 21 -39z m-429 -2 c-2 -8 -4 -23 -5 -34 -1 -22 -15 -45 -28 -45
-4 0 -7 13 -7 30 1 16 -5 36 -11 44 -7 8 -10 19 -7 25 9 14 62 -4 58 -20z
m-73 -10 c10 -28 9 -30 -10 -24 -15 5 -22 2 -26 -14 -6 -24 -23 -29 -23 -7 0
8 -2 20 -3 28 -2 7 -2 10 1 5 2 -4 13 4 24 18 11 14 21 25 23 25 2 0 8 -14 14
-31z m631 -1 c0 -13 -13 -9 -40 12 l-25 20 33 -12 c17 -7 32 -16 32 -20z
m-520 7 c0 -8 -2 -15 -4 -15 -2 0 -6 7 -10 15 -3 8 -1 15 4 15 6 0 10 -7 10
-15z m-252 -51 c-4 -3 -12 5 -18 18 -12 22 -12 22 6 6 10 -10 15 -20 12 -24z
m338 4 c-11 -15 -16 -18 -16 -7 0 16 21 42 28 34 2 -2 -3 -14 -12 -27z m229
22 c3 -5 1 -10 -4 -10 -6 0 -11 5 -11 10 0 6 2 10 4 10 3 0 8 -4 11 -10z m188
-15 c-2 -7 3 -15 11 -18 9 -4 16 -14 16 -24 0 -15 -2 -16 -10 -3 -8 13 -10 12
-10 -2 0 -10 -5 -18 -11 -18 -6 0 -8 7 -5 16 3 8 2 12 -4 9 -6 -4 -10 6 -10
23 0 18 5 29 14 29 8 0 12 -6 9 -12z m-593 -46 c0 -16 -7 -30 -16 -33 -13 -5
-15 -1 -12 24 4 29 4 29 -14 13 -18 -16 -19 -16 -13 0 3 9 7 24 10 32 8 26 45
-5 45 -36z m87 36 c0 -18 -19 -15 -25 3 -2 7 3 12 11 12 7 0 14 -7 14 -15z
m263 -6 c0 -5 -4 -9 -8 -9 -5 0 -9 7 -9 15 0 8 4 12 9 9 4 -3 8 -9 8 -15z
m183 -2 c6 4 8 1 5 -8 -3 -8 0 -23 8 -34 16 -22 19 -55 4 -55 -12 0 -39 52
-33 66 2 6 -3 11 -12 11 -8 0 -15 -4 -15 -9 0 -4 -5 -8 -12 -8 -6 0 -1 12 13
26 13 14 25 20 27 15 2 -6 9 -8 15 -4z m-393 -7 c0 -5 -8 -10 -17 -10 -15 0
-16 2 -3 10 19 12 20 12 20 0z m417 -12 c-3 -8 -6 -5 -6 6 -1 11 2 17 5 13 3
-3 4 -12 1 -19z m-492 -14 c0 -10 3 -21 6 -24 3 -3 12 -15 21 -28 l15 -22 -1
30 c-1 19 -5 28 -13 26 -7 -3 -11 3 -10 13 2 30 26 12 37 -27 11 -40 2 -52
-39 -52 -16 0 -21 4 -18 14 4 10 1 13 -8 9 -8 -3 -18 2 -21 11 -10 25 -23 9
-18 -21 6 -32 14 -43 14 -20 0 10 2 17 5 17 15 0 105 -74 105 -87 0 -9 -5 -11
-12 -7 -10 6 -10 5 -1 -7 6 -8 14 -51 18 -96 7 -74 6 -85 -12 -100 -10 -10
-13 -14 -6 -9 20 13 26 1 16 -30 -8 -25 -10 -26 -26 -10 -15 15 -17 15 -17 2
0 -9 -4 -16 -10 -16 -5 0 -10 5 -10 10 0 7 -6 7 -19 0 -13 -7 -28 -7 -45 0
l-26 10 0 125 c0 104 2 125 15 125 9 0 15 9 15 25 0 18 -4 23 -16 18 -14 -5
-16 0 -11 41 6 49 11 61 36 88 20 21 36 17 36 -8z m-186 -11 c0 -10 -4 -27 -9
-38 -7 -16 -9 -13 -9 18 -1 20 4 37 9 37 6 0 10 -8 9 -17z m41 0 c0 4 9 3 20
-3 11 -6 20 -18 20 -28 0 -15 -2 -15 -10 -2 -8 12 -10 9 -10 -12 0 -21 -5 -28
-19 -28 -11 0 -21 -6 -24 -12 -2 -7 -7 1 -11 18 -9 38 10 96 24 74 6 -8 10
-11 10 -7z m222 -8 c3 -14 1 -28 -3 -31 -5 -3 -9 9 -9 25 0 38 6 40 12 6z
m268 15 c0 -5 -7 -10 -15 -10 -8 0 -15 5 -15 10 0 6 7 10 15 10 8 0 15 -4 15
-10z m-35 -20 c3 -5 2 -10 -4 -10 -5 0 -13 5 -16 10 -3 6 -2 10 4 10 5 0 13
-4 16 -10z m99 -1 c3 -3 -3 -10 -12 -16 -15 -9 -18 -7 -19 7 -1 16 19 22 31 9z
m-54 -9 c0 -5 -2 -10 -4 -10 -3 0 -8 5 -11 10 -3 6 -1 10 4 10 6 0 11 -4 11
-10z m172 -30 c-2 -16 -8 -33 -13 -36 -10 -6 -12 59 -3 69 13 13 21 -3 16 -33z
m-75 8 c42 -46 51 -79 55 -210 4 -109 3 -125 -9 -112 -8 8 -22 14 -31 13 -14
0 -14 -2 -2 -6 18 -7 39 -34 39 -48 0 -5 -6 -2 -13 7 -7 10 -15 15 -18 12 -3
-2 -18 10 -33 28 -15 18 -23 34 -17 36 6 2 8 11 5 20 -4 14 -3 14 5 3 9 -13
13 -13 27 -1 19 16 14 63 -9 89 -8 9 -16 25 -18 36 -2 11 -10 20 -18 20 -15 0
-16 -8 -4 -57 5 -23 3 -27 -22 -31 -23 -3 -21 -4 10 -6 43 -1 40 -17 -4 -23
-21 -3 -25 -8 -23 -36 1 -24 -3 -32 -12 -28 -8 3 -15 1 -17 -5 -2 -5 -3 36 -3
91 0 65 4 103 13 112 6 6 12 23 12 38 -1 25 -1 25 -14 -5 -13 -31 -29 -22 -20
12 5 19 36 37 57 34 4 -1 7 5 7 13 0 13 12 23 31 25 3 1 15 -9 26 -21z m-141
-48 c3 0 -2 13 -11 29 -15 29 -14 30 10 27 36 -4 39 -11 19 -41 -13 -21 -15
-31 -6 -50 7 -16 8 -26 1 -30 -10 -7 -59 89 -59 115 0 8 10 0 21 -17 12 -18
23 -33 25 -33z m-422 -77 c-10 -7 -12 -13 -6 -13 7 0 12 -12 12 -27 0 -16 4
-64 10 -107 6 -44 7 -83 3 -87 -10 -9 -28 -12 -70 -10 l-31 1 -7 116 c-7 115
-7 117 16 136 23 19 23 19 2 8 -23 -11 -29 -4 -15 15 4 6 27 25 52 43 l45 33
3 -48 c3 -36 -1 -50 -14 -60z m56 37 c0 -5 -4 -10 -10 -10 -5 0 -10 5 -10 10
0 6 5 10 10 10 6 0 10 -4 10 -10z m293 -211 c-6 -6 -9 -19 -6 -28 5 -13 3 -13
-15 3 -25 21 -20 36 11 36 15 0 18 -3 10 -11z m350 -9 c7 0 6 -4 -2 -9 -12 -8
-11 -13 9 -29 16 -13 20 -21 12 -26 -7 -4 -12 -3 -12 3 0 6 -6 8 -14 5 -7 -3
-16 3 -19 13 -2 10 -8 27 -13 37 -6 16 -4 18 10 13 10 -4 23 -7 29 -7z m-220
-8 c-9 -6 -8 -12 6 -24 11 -9 21 -14 24 -12 3 3 8 1 12 -5 3 -6 0 -11 -9 -11
-8 0 -21 -3 -30 -6 -10 -4 -17 2 -22 20 -7 28 1 46 19 46 9 0 9 -2 0 -8z m-48
-23 c4 -11 4 -23 1 -26 -3 -4 -6 2 -7 13 -1 15 -3 13 -9 -6 -6 -22 -8 -23 -15
-7 -8 20 0 47 14 47 5 0 13 -9 16 -21z m383 9 c17 -17 15 -38 -4 -38 -8 0 -12
5 -9 10 3 6 -1 13 -9 16 -9 3 -16 10 -16 15 0 13 24 11 38 -3z m-148 -24 c0
-8 -4 -14 -10 -14 -5 0 -10 9 -10 21 0 11 5 17 10 14 6 -3 10 -13 10 -21z
m-280 -15 c0 -3 -7 -6 -15 -6 -17 0 -17 0 -9 22 5 13 8 14 15 3 5 -7 9 -16 9
-19z"/>
<path d="M620 1310 c13 -19 26 -27 36 -23 13 5 10 10 -13 29 -39 32 -48 30
-23 -6z"/>
<path d="M633 1176 c-18 -17 -33 -35 -33 -40 0 -6 14 5 31 22 17 18 38 32 45
32 8 0 14 5 14 10 0 18 -25 8 -57 -24z"/>
<path d="M572 1135 c-11 -12 -10 -15 3 -15 8 0 15 7 15 15 0 18 -2 18 -18 0z"/>
<path d="M283 1236 c3 -6 0 -20 -5 -31 -7 -14 -4 -13 11 5 25 30 26 37 6 37
-9 0 -14 -5 -12 -11z"/>
<path d="M510 1523 c0 -15 -2 -16 -10 -3 -5 8 -10 11 -10 5 1 -5 7 -19 15 -29
14 -19 15 -18 15 12 0 18 -2 32 -5 32 -3 0 -5 -8 -5 -17z"/>
<path d="M145 1413 c20 -47 19 -53 -6 -23 l-21 25 18 -32 c25 -45 35 -27 25
48 -1 4 -8 9 -16 13 -13 5 -13 1 0 -31z"/>
<path d="M753 1425 c-10 -10 -9 -16 2 -25 13 -10 15 -8 15 14 0 30 -1 30 -17
11z"/>
<path d="M1100 1405 c-10 -12 -10 -19 -2 -27 7 -7 15 -8 19 -4 4 4 1 11 -6 15
-11 7 -9 11 5 20 11 6 14 11 8 11 -6 0 -17 -7 -24 -15z"/>
<path d="M1151 1393 c11 -19 15 -20 22 -7 5 9 6 18 3 21 -3 4 -6 1 -6 -7 0
-10 -3 -10 -17 1 -15 13 -15 12 -2 -8z"/>
<path d="M694 1389 c-3 -6 -2 -15 4 -21 6 -6 12 -6 17 3 6 8 4 10 -5 4 -10 -6
-12 -4 -7 8 7 19 2 23 -9 6z"/>
<path d="M1040 1230 c0 -5 5 -10 11 -10 5 0 7 5 4 10 -3 6 -8 10 -11 10 -2 0
-4 -4 -4 -10z"/>
<path d="M1019 1220 c-1 -5 -2 -16 -3 -22 -3 -18 14 -38 30 -38 10 0 8 6 -6
20 -11 11 -17 26 -14 35 4 8 3 15 0 15 -3 0 -7 -4 -7 -10z"/>
<path d="M130 1162 c0 -14 48 -47 57 -38 3 3 1 6 -5 6 -6 0 -10 6 -8 13 1 6 1
8 -2 4 -2 -5 -13 -1 -23 9 -11 10 -19 12 -19 6z"/>
<path d="M94 733 c-26 -21 -29 -56 -3 -51 6 2 14 -3 16 -9 3 -7 0 -13 -6 -13
-18 0 -12 -18 15 -45 15 -15 22 -30 17 -38 -10 -16 -4 -50 11 -60 7 -6 4 -7
-6 -3 -14 4 -18 0 -18 -19 0 -14 -4 -25 -10 -25 -5 0 -9 -10 -9 -22 1 -17 2
-19 6 -5 5 20 23 23 23 3 0 -8 7 -16 15 -20 8 -3 15 -17 15 -31 0 -14 13 -38
31 -57 18 -18 26 -25 19 -15 -15 21 0 23 48 6 31 -11 52 -41 33 -47 -6 -2 -11
-13 -11 -23 0 -20 1 -20 31 -2 17 10 35 29 41 43 21 56 32 241 21 365 l-8 90
-30 -3 c-16 -2 -31 -5 -33 -7 -2 -2 0 -37 5 -77 l9 -73 16 35 c15 31 16 32 17
11 1 -14 -6 -32 -14 -41 -10 -11 -16 -43 -17 -98 -3 -77 -4 -82 -25 -82 -50 0
-81 113 -58 205 8 31 15 73 15 94 l0 37 -64 0 c-51 -1 -71 -6 -92 -23z m134
-345 c7 -7 12 -19 12 -27 0 -11 -4 -10 -20 4 -21 19 -26 35 -12 35 4 0 13 -5
20 -12z m92 -8 c0 -5 -2 -10 -4 -10 -3 0 -8 5 -11 10 -3 6 -1 10 4 10 6 0 11
-4 11 -10z"/>
<path d="M273 715 c0 -27 2 -38 4 -22 2 15 2 37 0 50 -2 12 -4 0 -4 -28z"/>
<path d="M472 729 c12 -16 27 -29 32 -28 6 0 5 3 -1 6 -7 2 -13 13 -13 23 0
10 -9 20 -20 23 -18 5 -18 4 2 -24z"/>
<path d="M501 743 c-1 -13 5 -23 13 -23 21 0 28 -31 11 -50 -20 -22 -19 -28 8
-50 l22 -19 -23 6 c-21 5 -23 2 -20 -23 2 -21 -1 -29 -12 -29 -8 0 -15 9 -15
20 0 11 -6 31 -13 43 -8 13 -11 35 -8 48 7 28 -26 84 -50 84 -11 0 -14 -26
-14 -147 0 -82 4 -164 10 -183 11 -40 67 -113 81 -105 5 4 9 -1 9 -10 0 -10 7
-15 18 -13 17 3 21 17 23 88 0 19 7 50 15 69 11 27 13 62 9 150 -8 154 -10
164 -34 151 -14 -7 -21 -6 -24 3 -3 6 -6 2 -6 -10z m24 -402 c3 -5 1 -12 -5
-16 -5 -3 -10 1 -10 9 0 18 6 21 15 7z"/>
<path d="M584 733 c-4 -14 -4 -69 0 -124 5 -78 13 -112 36 -163 16 -36 31 -85
32 -110 2 -25 6 -46 11 -46 4 0 7 -5 7 -11 0 -5 -4 -8 -9 -4 -15 8 -3 -42 19
-86 22 -42 36 -54 45 -39 4 6 11 8 16 5 5 -3 6 1 3 9 -3 9 -1 16 5 16 28 0 71
121 71 202 0 53 -1 56 -22 51 -13 -3 -31 -13 -40 -21 -12 -10 -18 -11 -18 -4
0 7 17 20 38 30 l37 17 -4 145 c-2 80 -5 147 -7 149 -8 9 -84 9 -84 0 0 -6 -5
-7 -11 -3 -6 3 -35 8 -65 10 -51 3 -54 2 -60 -23z m71 -163 c-3 -5 -11 -10
-16 -10 -6 0 -7 5 -4 10 3 6 11 10 16 10 6 0 7 -4 4 -10z m55 -205 c0 -2 -10
-10 -22 -16 -21 -11 -22 -11 -9 4 13 16 31 23 31 12z m80 -49 c0 -2 -7 -7 -16
-10 -8 -3 -12 -2 -9 4 6 10 25 14 25 6z m-95 -74 c-3 -3 -11 0 -18 7 -9 10 -8
11 6 5 10 -3 15 -9 12 -12z m25 -12 c0 -5 -5 -10 -11 -10 -5 0 -7 5 -4 10 3 6
8 10 11 10 2 0 4 -4 4 -10z"/>
<path d="M829 743 c-1 -10 -1 -21 -1 -25 1 -3 2 -67 3 -141 1 -120 3 -138 20
-153 13 -11 16 -21 9 -28 -6 -8 -1 -26 15 -54 13 -24 20 -40 14 -37 -16 10
-47 79 -44 98 2 9 0 15 -5 12 -9 -5 -7 -29 8 -86 10 -41 31 -81 32 -61 0 10 4
10 16 -2 8 -9 19 -16 23 -16 18 0 50 48 57 85 3 22 8 48 10 58 2 11 -4 17 -17
17 -10 0 -19 5 -19 10 0 6 8 10 18 8 16 -3 17 9 15 136 -1 77 -4 150 -7 162
-6 23 -45 37 -68 23 -7 -5 -16 -3 -20 4 -6 9 -8 9 -8 -1 0 -9 -5 -10 -19 -2
-27 14 -31 13 -32 -7z m71 -363 c0 -5 -7 -10 -16 -10 -8 0 -12 5 -9 10 3 6 10
10 16 10 5 0 9 -4 9 -10z m54 -22 c4 3 4 -1 1 -10 -6 -14 -10 -15 -26 -5 -25
15 -25 31 0 18 10 -6 21 -7 25 -3z"/>
<path d="M1005 653 c4 -59 6 -120 6 -135 -1 -16 4 -28 10 -28 8 0 8 -4 1 -12
-6 -7 -11 -35 -13 -63 -2 -39 1 -49 12 -47 8 2 16 8 17 13 5 12 32 12 32 -1 0
-5 -7 -10 -16 -10 -9 0 -18 -9 -21 -20 -3 -11 -9 -17 -14 -14 -5 3 -9 -2 -9
-10 0 -18 39 -48 53 -39 5 3 4 9 -3 13 -9 5 -7 18 9 47 13 26 17 44 10 51 -5
7 -6 10 -2 7 3 -3 13 4 20 15 11 16 14 55 12 170 -1 83 -5 152 -8 154 -3 2
-28 7 -55 11 l-49 7 8 -109z"/>
<path d="M1121 621 c1 -138 8 -176 31 -184 7 -2 3 -2 -10 0 -22 4 -23 3 -16
-69 3 -40 7 -74 9 -76 2 -2 15 33 30 78 22 67 30 80 45 75 12 -4 19 1 22 13 4
15 1 18 -13 15 -11 -3 -19 0 -19 6 0 6 9 11 20 11 16 0 20 7 20 35 0 21 -5 35
-12 35 -9 0 -9 3 1 9 12 8 10 18 -13 63 -15 30 -26 58 -25 64 4 21 -2 28 -11
14 -7 -11 -9 -7 -7 15 2 26 -1 30 -26 30 l-28 1 2 -135z m85 -27 c3 -31 2 -45
-4 -39 -11 12 -23 81 -15 89 10 10 13 2 19 -50z"/>
<path d="M243 584 c-6 -17 14 -70 24 -61 3 4 1 13 -5 20 -6 7 -10 23 -7 35 5
25 -3 29 -12 6z"/>
<path d="M580 453 c0 -9 11 -40 25 -70 14 -29 23 -59 19 -65 -4 -7 -3 -8 4 -4
18 11 14 46 -13 104 -25 54 -35 64 -35 35z"/>
<path d="M557 372 c-5 -61 18 -137 34 -111 4 7 5 17 3 21 -3 4 0 8 5 8 12 0
13 -6 5 -37 -5 -18 -11 -22 -30 -17 -20 5 -23 3 -17 -12 4 -12 3 -15 -5 -10
-7 4 -12 14 -12 22 0 28 -25 8 -26 -21 -1 -16 -10 -36 -21 -45 -21 -16 -21
-17 -2 -29 11 -6 17 -17 14 -24 -4 -7 0 -4 8 6 9 10 18 18 21 18 23 -3 29 6
46 64 2 6 10 15 18 21 29 21 20 141 -11 161 -6 4 -8 0 -4 -10 3 -10 2 -17 -4
-17 -6 0 -8 11 -4 29 3 16 2 32 -3 35 -5 3 -12 -20 -15 -52z m-26 -203 c-5
-13 -10 -19 -10 -12 -1 15 10 45 15 40 3 -2 0 -15 -5 -28z"/>
<path d="M1099 403 c-1 -5 -1 -12 0 -16 1 -4 -5 -18 -14 -30 -8 -12 -15 -27
-15 -34 0 -20 20 -15 21 5 1 9 5 1 9 -18 5 -27 7 -19 6 33 -1 59 -3 83 -7 60z"/>
<path d="M388 361 c-11 -49 -10 -67 3 -54 6 6 9 28 7 49 l-3 39 -7 -34z"/>
<path d="M410 339 c0 -30 44 -129 57 -129 9 0 13 -6 9 -15 -6 -16 9 -21 19 -6
3 5 -5 17 -17 26 l-23 17 23 -5 c22 -5 23 -5 8 16 -9 12 -26 41 -37 65 -20 40
-39 55 -39 31z"/>
<path d="M833 259 c1 -48 5 -85 8 -83 4 2 10 -12 13 -31 4 -20 11 -33 16 -30
17 10 22 -17 6 -33 -15 -15 -16 -15 -16 0 0 9 -4 19 -9 22 -5 4 -7 -3 -4 -14
3 -11 0 -20 -6 -20 -6 0 -11 5 -11 12 0 6 -2 9 -5 6 -13 -12 8 -38 26 -33 13
4 21 1 26 -11 6 -15 7 -15 20 2 8 10 16 18 18 17 13 -8 16 -1 5 12 -6 8 -9 19
-5 25 4 6 2 16 -3 23 -5 7 -13 28 -16 47 -6 27 -5 32 4 20 10 -13 11 -13 7 0
-2 8 0 22 4 32 6 11 4 18 -6 22 -17 6 -27 -7 -19 -27 3 -8 1 -18 -5 -21 -6 -4
-13 5 -17 21 -4 15 -13 51 -20 78 l-13 50 2 -86z m44 -111 c-3 -8 -6 -5 -6 6
-1 11 2 17 5 13 3 -3 4 -12 1 -19z"/>
<path d="M981 288 c-8 -15 -10 -35 -6 -45 6 -16 8 -15 16 7 6 13 8 33 6 45 -3
18 -4 18 -16 -7z"/>
<path d="M382 250 c2 -22 -1 -42 -7 -44 -5 -2 -4 -5 4 -5 8 -1 22 -8 32 -17
18 -17 39 -12 39 9 0 7 -4 6 -10 -3 -7 -11 -12 -12 -21 -3 -11 11 -15 28 -18
81 0 12 -6 22 -12 22 -7 0 -10 -15 -7 -40z"/>
<path d="M480 281 c0 -5 7 -15 17 -22 15 -13 15 -12 4 9 -12 23 -21 28 -21 13z"/>
<path d="M624 250 c-4 -22 -10 -40 -15 -40 -4 0 -6 -12 -4 -27 2 -16 4 -31 4
-35 1 -8 44 -4 59 6 9 5 9 13 1 28 -11 20 -13 20 -24 5 -16 -22 -20 -21 -22 3
-1 11 2 20 7 20 5 0 8 18 8 40 0 22 -2 40 -4 40 -2 0 -7 -18 -10 -40z"/>
<path d="M540 271 c0 -5 5 -13 10 -16 6 -3 10 -2 10 4 0 5 -4 13 -10 16 -5 3
-10 2 -10 -4z"/>
<path d="M1000 246 c-7 -22 -8 -47 -2 -73 6 -24 6 -47 0 -57 -15 -26 -2 -18
17 10 9 15 12 24 7 20 -6 -4 0 14 14 38 25 44 25 44 4 51 -15 5 -19 12 -15 26
4 10 2 19 -4 19 -5 0 -14 -15 -21 -34z"/>
<path d="M362 250 c0 -14 2 -19 5 -12 2 6 2 18 0 25 -3 6 -5 1 -5 -13z"/>
<path d="M317 249 c-21 -12 -22 -43 -1 -63 20 -21 34 -12 34 22 0 39 -11 53
-33 41z"/>
<path d="M931 228 c-12 -41 -7 -151 8 -156 6 -2 11 3 11 12 0 9 5 15 12 14 18
-4 27 56 11 77 -7 11 -13 34 -13 52 0 42 -15 43 -29 1z"/>
<path d="M792 220 c-15 -25 -15 -33 1 -25 6 4 1 -3 -12 -15 -19 -16 -22 -23
-12 -33 13 -13 29 6 42 49 9 31 -4 48 -19 24z"/>
<path d="M1048 180 c-10 -17 -13 -32 -7 -35 5 -4 14 6 20 22 5 15 16 31 22 35
9 5 8 8 -3 8 -8 0 -23 -13 -32 -30z"/>
<path d="M373 175 c4 -8 2 -15 -3 -15 -17 0 -11 -36 10 -55 18 -16 23 -17 46
-5 22 12 27 12 35 0 8 -13 10 -13 19 0 11 17 9 32 -4 30 -5 -1 -12 2 -15 7 -3
5 -26 19 -50 32 -34 17 -42 19 -38 6z"/>
<path d="M760 109 c0 -6 7 -8 16 -5 13 5 15 1 12 -19 -3 -14 -2 -28 2 -30 4
-3 10 8 12 25 3 19 0 31 -10 35 -21 8 -32 6 -32 -6z"/>
<path d="M944 48 l-29 -31 33 22 c17 12 32 27 32 32 0 14 -4 11 -36 -23z"/>
</g>
</svg>
